<svg width="38" height="38" viewBox="0 0 38 38" fill="none" xmlns="http://www.w3.org/2000/svg">
<path d="M8 0.5H30C34.1421 0.5 37.5 3.85786 37.5 8V30C37.5 34.1421 34.1421 37.5 30 37.5H8C3.85786 37.5 0.5 34.1421 0.5 30V8C0.5 3.85786 3.85786 0.5 8 0.5Z" fill="#18181B"/>
<path d="M8 0.5H30C34.1421 0.5 37.5 3.85786 37.5 8V30C37.5 34.1421 34.1421 37.5 30 37.5H8C3.85786 37.5 0.5 34.1421 0.5 30V8C0.5 3.85786 3.85786 0.5 8 0.5Z" stroke="#27272A"/>
<g clip-path="url(#clip0_25_998)">
<path d="M22.3332 26.5V24.8333C22.3332 23.9493 21.982 23.1014 21.3569 22.4763C20.7317 21.8512 19.8839 21.5 18.9998 21.5H13.9998C13.1158 21.5 12.2679 21.8512 11.6428 22.4763C11.0177 23.1014 10.6665 23.9493 10.6665 24.8333V26.5" stroke="#A6FF00" stroke-width="2" stroke-linecap="round" stroke-linejoin="round"/>
<path d="M22.3335 11.6067C23.0483 11.792 23.6813 12.2094 24.1332 12.7934C24.5851 13.3774 24.8303 14.0949 24.8303 14.8334C24.8303 15.5718 24.5851 16.2893 24.1332 16.8733C23.6813 17.4573 23.0483 17.8747 22.3335 18.06" stroke="#A6FF00" stroke-width="2" stroke-linecap="round" stroke-linejoin="round"/>
<path d="M27.3335 26.4999V24.8333C27.3329 24.0947 27.0871 23.3773 26.6346 22.7935C26.1821 22.2098 25.5486 21.7929 24.8335 21.6083" stroke="#A6FF00" stroke-width="2" stroke-linecap="round" stroke-linejoin="round"/>
<path d="M16.4998 18.1667C18.3408 18.1667 19.8332 16.6743 19.8332 14.8333C19.8332 12.9924 18.3408 11.5 16.4998 11.5C14.6589 11.5 13.1665 12.9924 13.1665 14.8333C13.1665 16.6743 14.6589 18.1667 16.4998 18.1667Z" stroke="#A6FF00" stroke-width="2" stroke-linecap="round" stroke-linejoin="round"/>
</g>
<defs>
<clipPath id="clip0_25_998">
<rect width="20" height="20" fill="white" transform="translate(9 9)"/>
</clipPath>
</defs>
</svg>
