<svg width="248" height="248" viewBox="0 0 248 248" fill="none" xmlns="http://www.w3.org/2000/svg">
<g filter="url(#filter0_ddii_175_3)">
<path d="M72 120C72 93.4903 93.4903 72 120 72C146.51 72 168 93.4903 168 120C168 146.51 146.51 168 120 168C93.4903 168 72 146.51 72 120Z" fill="#E8EBEE"/>
<path d="M120 72.5C146.234 72.5 167.5 93.7665 167.5 120C167.5 146.234 146.234 167.5 120 167.5C93.7665 167.5 72.5 146.234 72.5 120C72.5 93.7665 93.7665 72.5 120 72.5Z" stroke="url(#paint0_linear_175_3)"/>
</g>
<g filter="url(#filter1_ii_175_3)">
<path d="M80 120C80 97.9085 97.9087 79.9998 120 79.9998C142.092 79.9998 160 97.9085 160 120C160 142.092 142.092 160 120 160C97.9087 160 80 142.092 80 120Z" fill="#E8EBEE"/>
<path d="M120 80.4998C141.815 80.4998 159.501 98.1845 159.501 120C159.501 141.815 141.815 159.501 120 159.501C98.1847 159.501 80.5 141.815 80.5 120C80.5001 98.1846 98.1848 80.4999 120 80.4998Z" stroke="url(#paint1_linear_175_3)"/>
</g>
<g filter="url(#filter2_d_175_3)">
<g filter="url(#filter3_ii_175_3)">
<path d="M116 120C116 117.791 117.791 116 120 116C122.209 116 124 117.791 124 120C124 122.209 122.209 124 120 124C117.791 124 116 122.209 116 120Z" fill="#E8EBEE"/>
<path d="M120 116.5C121.933 116.5 123.5 118.067 123.5 120C123.5 121.933 121.933 123.5 120 123.5C118.067 123.5 116.5 121.933 116.5 120C116.5 118.067 118.067 116.5 120 116.5Z" stroke="url(#paint2_linear_175_3)"/>
</g>
</g>
<defs>
<filter id="filter0_ddii_175_3" x="58" y="58" width="125" height="125" filterUnits="userSpaceOnUse" color-interpolation-filters="sRGB">
<feFlood flood-opacity="0" result="BackgroundImageFix"/>
<feColorMatrix in="SourceAlpha" type="matrix" values="0 0 0 0 0 0 0 0 0 0 0 0 0 0 0 0 0 0 127 0" result="hardAlpha"/>
<feOffset dx="-4" dy="-4"/>
<feGaussianBlur stdDeviation="5"/>
<feColorMatrix type="matrix" values="0 0 0 0 1 0 0 0 0 1 0 0 0 0 1 0 0 0 0.4 0"/>
<feBlend mode="normal" in2="BackgroundImageFix" result="effect1_dropShadow_175_3"/>
<feColorMatrix in="SourceAlpha" type="matrix" values="0 0 0 0 0 0 0 0 0 0 0 0 0 0 0 0 0 0 127 0" result="hardAlpha"/>
<feOffset dx="5" dy="5"/>
<feGaussianBlur stdDeviation="5"/>
<feComposite in2="hardAlpha" operator="out"/>
<feColorMatrix type="matrix" values="0 0 0 0 0.533333 0 0 0 0 0.588235 0 0 0 0 0.639216 0 0 0 0.24 0"/>
<feBlend mode="normal" in2="effect1_dropShadow_175_3" result="effect2_dropShadow_175_3"/>
<feBlend mode="normal" in="SourceGraphic" in2="effect2_dropShadow_175_3" result="shape"/>
<feColorMatrix in="SourceAlpha" type="matrix" values="0 0 0 0 0 0 0 0 0 0 0 0 0 0 0 0 0 0 127 0" result="hardAlpha"/>
<feOffset dx="-5" dy="-5"/>
<feGaussianBlur stdDeviation="5"/>
<feComposite in2="hardAlpha" operator="arithmetic" k2="-1" k3="1"/>
<feColorMatrix type="matrix" values="0 0 0 0 0.857064 0 0 0 0 0.861224 0 0 0 0 0.865385 0 0 0 0.25 0"/>
<feBlend mode="normal" in2="shape" result="effect3_innerShadow_175_3"/>
<feColorMatrix in="SourceAlpha" type="matrix" values="0 0 0 0 0 0 0 0 0 0 0 0 0 0 0 0 0 0 127 0" result="hardAlpha"/>
<feOffset dx="5" dy="5"/>
<feGaussianBlur stdDeviation="2.5"/>
<feComposite in2="hardAlpha" operator="arithmetic" k2="-1" k3="1"/>
<feColorMatrix type="matrix" values="0 0 0 0 1 0 0 0 0 1 0 0 0 0 1 0 0 0 1 0"/>
<feBlend mode="normal" in2="effect3_innerShadow_175_3" result="effect4_innerShadow_175_3"/>
</filter>
<filter id="filter1_ii_175_3" x="77" y="76.9998" width="86.0005" height="86.0005" filterUnits="userSpaceOnUse" color-interpolation-filters="sRGB">
<feFlood flood-opacity="0" result="BackgroundImageFix"/>
<feBlend mode="normal" in="SourceGraphic" in2="BackgroundImageFix" result="shape"/>
<feColorMatrix in="SourceAlpha" type="matrix" values="0 0 0 0 0 0 0 0 0 0 0 0 0 0 0 0 0 0 127 0" result="hardAlpha"/>
<feOffset dx="-3" dy="-3"/>
<feGaussianBlur stdDeviation="3.5"/>
<feComposite in2="hardAlpha" operator="arithmetic" k2="-1" k3="1"/>
<feColorMatrix type="matrix" values="0 0 0 0 1 0 0 0 0 1 0 0 0 0 1 0 0 0 1 0"/>
<feBlend mode="normal" in2="shape" result="effect1_innerShadow_175_3"/>
<feColorMatrix in="SourceAlpha" type="matrix" values="0 0 0 0 0 0 0 0 0 0 0 0 0 0 0 0 0 0 127 0" result="hardAlpha"/>
<feOffset dx="3" dy="3"/>
<feGaussianBlur stdDeviation="3.5"/>
<feComposite in2="hardAlpha" operator="arithmetic" k2="-1" k3="1"/>
<feColorMatrix type="matrix" values="0 0 0 0 0.8125 0 0 0 0 0.8125 0 0 0 0 0.8125 0 0 0 0.58 0"/>
<feBlend mode="normal" in2="effect1_innerShadow_175_3" result="effect2_innerShadow_175_3"/>
</filter>
<filter id="filter2_d_175_3" x="-44" y="-44" width="336" height="336" filterUnits="userSpaceOnUse" color-interpolation-filters="sRGB">
<feFlood flood-opacity="0" result="BackgroundImageFix"/>
<feColorMatrix in="SourceAlpha" type="matrix" values="0 0 0 0 0 0 0 0 0 0 0 0 0 0 0 0 0 0 127 0" result="hardAlpha"/>
<feOffset dx="4" dy="4"/>
<feGaussianBlur stdDeviation="60"/>
<feComposite in2="hardAlpha" operator="out"/>
<feColorMatrix type="matrix" values="0 0 0 0 1 0 0 0 0 1 0 0 0 0 1 0 0 0 1 0"/>
<feBlend mode="normal" in2="BackgroundImageFix" result="effect1_dropShadow_175_3"/>
<feBlend mode="normal" in="SourceGraphic" in2="effect1_dropShadow_175_3" result="shape"/>
</filter>
<filter id="filter3_ii_175_3" x="113" y="113" width="14" height="14" filterUnits="userSpaceOnUse" color-interpolation-filters="sRGB">
<feFlood flood-opacity="0" result="BackgroundImageFix"/>
<feBlend mode="normal" in="SourceGraphic" in2="BackgroundImageFix" result="shape"/>
<feColorMatrix in="SourceAlpha" type="matrix" values="0 0 0 0 0 0 0 0 0 0 0 0 0 0 0 0 0 0 127 0" result="hardAlpha"/>
<feOffset dx="-3" dy="-3"/>
<feGaussianBlur stdDeviation="3.5"/>
<feComposite in2="hardAlpha" operator="arithmetic" k2="-1" k3="1"/>
<feColorMatrix type="matrix" values="0 0 0 0 1 0 0 0 0 1 0 0 0 0 1 0 0 0 1 0"/>
<feBlend mode="normal" in2="shape" result="effect1_innerShadow_175_3"/>
<feColorMatrix in="SourceAlpha" type="matrix" values="0 0 0 0 0 0 0 0 0 0 0 0 0 0 0 0 0 0 127 0" result="hardAlpha"/>
<feOffset dx="3" dy="3"/>
<feGaussianBlur stdDeviation="3.5"/>
<feComposite in2="hardAlpha" operator="arithmetic" k2="-1" k3="1"/>
<feColorMatrix type="matrix" values="0 0 0 0 0.533333 0 0 0 0 0.588235 0 0 0 0 0.639216 0 0 0 0.58 0"/>
<feBlend mode="normal" in2="effect1_innerShadow_175_3" result="effect2_innerShadow_175_3"/>
</filter>
<linearGradient id="paint0_linear_175_3" x1="120" y1="72" x2="120" y2="168" gradientUnits="userSpaceOnUse">
<stop stop-color="#EFEFEF"/>
<stop offset="1" stop-color="#B7BEC4" stop-opacity="0.57"/>
</linearGradient>
<linearGradient id="paint1_linear_175_3" x1="120" y1="79.9998" x2="120" y2="160" gradientUnits="userSpaceOnUse">
<stop stop-color="white"/>
<stop offset="1" stop-color="#E8E8E8"/>
</linearGradient>
<linearGradient id="paint2_linear_175_3" x1="120" y1="116" x2="120" y2="124" gradientUnits="userSpaceOnUse">
<stop stop-color="white"/>
<stop offset="1" stop-color="#E8E8E8"/>
</linearGradient>
</defs>
</svg>
