<svg width="16" height="16" viewBox="0 0 16 16" fill="none" xmlns="http://www.w3.org/2000/svg">
<g clip-path="url(#clip0_83_1241)">
<path d="M3.66675 10.6667C7.00008 12.3334 9.00008 12.3334 12.3334 10.6667" stroke="black" stroke-opacity="0.8" stroke-width="1.5" stroke-linecap="round" stroke-linejoin="round"/>
<path d="M10.3333 11.6667L11 13C11 13 13.7807 12.1147 14.6667 10.6667C14.6667 10 15.02 5.23535 12.6667 3.66669C11.6667 3.00002 10 2.66669 10 2.66669L9.33333 4.00002H8" stroke="black" stroke-opacity="0.8" stroke-width="1.5" stroke-linecap="round" stroke-linejoin="round"/>
<path d="M5.68555 11.6667L5.01888 13C5.01888 13 2.23822 12.1147 1.35222 10.6667C1.35222 10 0.998885 5.23535 3.35222 3.66669C4.35222 3.00002 6.01888 2.66669 6.01888 2.66669L6.68555 4.00002H8.01888" stroke="black" stroke-opacity="0.8" stroke-width="1.5" stroke-linecap="round" stroke-linejoin="round"/>
<path d="M5.66675 9.33335C5.11475 9.33335 4.66675 8.73669 4.66675 8.00002C4.66675 7.26335 5.11475 6.66669 5.66675 6.66669C6.21875 6.66669 6.66675 7.26335 6.66675 8.00002C6.66675 8.73669 6.21875 9.33335 5.66675 9.33335ZM10.3334 9.33335C9.78141 9.33335 9.33341 8.73669 9.33341 8.00002C9.33341 7.26335 9.78141 6.66669 10.3334 6.66669C10.8854 6.66669 11.3334 7.26335 11.3334 8.00002C11.3334 8.73669 10.8854 9.33335 10.3334 9.33335Z" stroke="black" stroke-opacity="0.8" stroke-width="1.5" stroke-linecap="round" stroke-linejoin="round"/>
</g>
<defs>
<clipPath id="clip0_83_1241">
<rect width="16" height="16" fill="white"/>
</clipPath>
</defs>
</svg>
