<svg width="16" height="16" viewBox="0 0 16 16" fill="none" xmlns="http://www.w3.org/2000/svg">
<g clip-path="url(#clip0_83_1247)">
<path d="M5.27329 13.926C10.808 13.926 13.8366 9.336 13.8366 5.36267C13.8366 5.234 13.8366 5.10467 13.8306 4.976C14.4203 4.54867 14.9291 4.01975 15.3333 3.414C14.7826 3.65652 14.1993 3.81668 13.602 3.88934C14.2315 3.5129 14.703 2.92063 14.9286 2.22267C14.3372 2.57292 13.69 2.81894 13.0153 2.95C12.7341 2.64955 12.3941 2.41017 12.0164 2.24673C11.6387 2.0833 11.2315 1.99932 10.82 2C10.0217 2.00071 9.25633 2.31813 8.69188 2.88259C8.12742 3.44704 7.81 4.21241 7.80929 5.01067C7.80929 5.24534 7.83863 5.47467 7.88529 5.69734C6.68859 5.6372 5.5179 5.3261 4.4492 4.78423C3.38051 4.24236 2.4377 3.48183 1.68196 2.552C1.29784 3.21529 1.18055 3.9999 1.35389 4.74652C1.52724 5.49314 1.97823 6.14581 2.61529 6.572C2.13827 6.5546 1.67189 6.42608 1.25329 6.19667V6.23734C1.25402 6.93206 1.49457 7.60523 1.93428 8.14309C2.374 8.68095 2.98591 9.05052 3.66663 9.18934C3.40848 9.26069 3.14178 9.29636 2.87396 9.29534C2.68063 9.29534 2.49285 9.27756 2.31063 9.242C2.50209 9.84044 2.87623 10.3639 3.38047 10.7387C3.88472 11.1136 4.49373 11.3211 5.12196 11.332C4.05616 12.1701 2.73914 12.6248 1.38329 12.6227C1.14381 12.6234 0.904489 12.6098 0.666626 12.582C2.04263 13.4601 3.641 13.9264 5.27329 13.926Z" stroke="black" stroke-opacity="0.8" stroke-width="1.5" stroke-miterlimit="10" stroke-linejoin="round"/>
</g>
<defs>
<clipPath id="clip0_83_1247">
<rect width="16" height="16" fill="white"/>
</clipPath>
</defs>
</svg>
