<svg width="38" height="38" viewBox="0 0 38 38" fill="none" xmlns="http://www.w3.org/2000/svg">
<path d="M8 0.5H30C34.1421 0.5 37.5 3.85786 37.5 8V30C37.5 34.1421 34.1421 37.5 30 37.5H8C3.85786 37.5 0.5 34.1421 0.5 30V8C0.5 3.85786 3.85786 0.5 8 0.5Z" fill="#18181B"/>
<path d="M8 0.5H30C34.1421 0.5 37.5 3.85786 37.5 8V30C37.5 34.1421 34.1421 37.5 30 37.5H8C3.85786 37.5 0.5 34.1421 0.5 30V8C0.5 3.85786 3.85786 0.5 8 0.5Z" stroke="#27272A"/>
<path d="M25.6668 19.8333C25.6668 24 22.7502 26.0833 19.2835 27.2916C19.102 27.3532 18.9048 27.3502 18.7252 27.2833C15.2502 26.0833 12.3335 24 12.3335 19.8333V14C12.3335 13.779 12.4213 13.567 12.5776 13.4107C12.7339 13.2544 12.9458 13.1666 13.1668 13.1666C14.8335 13.1666 16.9168 12.1666 18.3668 10.9C18.5434 10.7491 18.768 10.6663 19.0002 10.6663C19.2324 10.6663 19.457 10.7491 19.6335 10.9C21.0918 12.175 23.1668 13.1666 24.8335 13.1666C25.0545 13.1666 25.2665 13.2544 25.4228 13.4107C25.579 13.567 25.6668 13.779 25.6668 14V19.8333Z" stroke="#A6FF00" stroke-width="2" stroke-linecap="round" stroke-linejoin="round"/>
<path d="M16.5 19L18.1667 20.6667L21.5 17.3334" stroke="#A6FF00" stroke-width="2" stroke-linecap="round" stroke-linejoin="round"/>
</svg>
